<?xml version="1.0" standalone="no"?>
<!DOCTYPE svg PUBLIC "-//W3C//DTD SVG 20010904//EN"
 "http://www.w3.org/TR/2001/REC-SVG-20010904/DTD/svg10.dtd">
<svg version="1.0" xmlns="http://www.w3.org/2000/svg"
 width="961.000000pt" height="961.000000pt" viewBox="0 0 961.000000 961.000000"
 preserveAspectRatio="xMidYMid meet">
<metadata>
Created by potrace 1.11, written by Peter Selinger 2001-2013
</metadata>
<g transform="translate(0.000000,961.000000) scale(0.100000,-0.100000)"
fill="#000000" stroke="none">
<path d="M1295 9094 c-111 -27 -202 -80 -296 -174 -65 -65 -94 -103 -122 -160
-73 -150 -67 196 -67 -3870 0 -4064 -6 -3718 67 -3870 50 -106 177 -233 283
-283 151 -73 -177 -67 3710 -67 3887 0 3559 -6 3710 67 106 50 233 177 283
283 73 152 67 -194 67 3870 0 4068 6 3720 -68 3870 -51 105 -177 231 -282 282
-118 58 -176 68 -408 68 -183 0 -202 -2 -188 -15 8 -9 18 -30 21 -48 3 -18 5
-610 3 -1315 l-3 -1284 -24 -19 c-23 -18 -43 -19 -525 -17 l-501 3 0 60 0 60
463 3 462 2 -2 1223 -3 1222 -490 3 -489 2 -36 35 c-19 18 -60 45 -90 59 l-55
26 -2680 -1 c-2303 -1 -2688 -3 -2740 -15z m5398 -115 c21 -5 53 -24 72 -40
70 -62 66 31 63 -1430 l-3 -1315 -27 -41 c-16 -24 -44 -49 -70 -62 l-44 -21
-2250 0 c-2165 0 -2250 1 -2289 19 -46 21 -79 54 -94 94 -8 20 -11 438 -11
1348 0 1295 0 1321 20 1359 22 44 60 74 110 88 50 14 4472 16 4523 1z m635
-4303 c80 -37 162 -123 191 -201 l21 -56 0 -1814 0 -1815 -2670 0 -2670 0 0
1815 c0 1810 0 1814 21 1870 24 65 104 157 163 187 95 49 -29 47 2501 45
l2380 -2 63 -29z m-5593 -3336 l0 -125 -196 -3 -196 -2 -7 37 c-8 49 -8 137 0
186 l7 37 196 -2 196 -3 0 -125z m6666 98 c1 -36 1 -182 0 -211 -1 -16 -15
-17 -198 -15 l-198 3 -2 120 c0 66 1 123 4 127 2 5 92 8 199 8 l194 0 1 -32z"/>
<path d="M2737 8513 c-4 -3 -7 -449 -7 -990 l0 -983 420 0 420 0 0 990 0 990
-413 0 c-228 0 -417 -3 -420 -7z"/>
<path d="M2806 3551 c-26 -28 -18 -82 14 -98 20 -10 443 -13 2050 -13 1607 0
2030 3 2050 13 32 16 40 70 14 98 -17 19 -63 19 -2064 19 -2001 0 -2047 0
-2064 -19z"/>
<path d="M2806 2891 c-26 -28 -18 -82 14 -98 39 -20 4090 -14 4113 6 23 18 22
74 -1 94 -17 16 -175 17 -2064 17 -1999 0 -2045 0 -2062 -19z"/>
<path d="M2807 2232 c-21 -23 -22 -62 -3 -88 14 -19 47 -19 2066 -19 2019 0
2052 0 2066 19 19 27 18 70 -4 89 -17 16 -175 17 -2064 17 -1968 0 -2046 -1
-2061 -18z"/>
<path d="M2807 1572 c-21 -23 -22 -66 -1 -86 14 -14 215 -16 2064 -16 1849 0
2050 2 2064 16 22 21 20 67 -2 87 -17 16 -175 17 -2064 17 -1968 0 -2046 -1
-2061 -18z"/>
</g>
</svg>
